<?xml version="1.0" encoding="utf-8"?><svg viewBox="0 0 117 22" xmlns="http://www.w3.org/2000/svg" xmlns:xlink="http://www.w3.org/1999/xlink"><style>:root>svg{display:none}:root>svg:target{display:block}</style><svg viewBox="0 0 117 22" id="logo" xmlns="http://www.w3.org/2000/svg"><path fill-rule="evenodd" d="M117 22h-6l-5-6.875L101 22h-6l8-11-8-11h6l5 6.875L111 0h6l-8 11 8 11zM76 0h15v4H81v5h9v4h-9v5h10v4H76V0zM50 0l14 11V0h5v22L50 6V0zM33 22c-6.075 0-11-4.925-11-11 0-.666.069-1.315.183-1.949l5.726 5.09C28.966 15.851 30.842 17 33 17a6 6 0 100-12c-2.244 0-4.176 1.246-5.206 3.07l-3.822-3.345A10.98 10.98 0 0133 0c6.075 0 11 4.925 11 11s-4.925 11-11 11zm-16-4v4H0L10 6H1V1h17L8 18h9zm38 4h-5V12l5 3v7z"/></svg></svg>