<?xml version="1.0" encoding="utf-8"?><svg viewBox="0 0 117 22" xmlns="http://www.w3.org/2000/svg" xmlns:xlink="http://www.w3.org/1999/xlink"><style>:root>svg{display:none}:root>svg:target{display:block}</style><svg viewBox="0 0 12 21.03" id="down" xmlns="http://www.w3.org/2000/svg"><path class="acls-1" d="M.307 15.72l4.983 5a.977.977 0 001.409 0l4.983-5a1 1 0 00-.7-1.71H6.995v-13a1 1 0 10-1.993 0v13H1.016a1 1 0 00-.709 1.71zm8.265.3L6 18.6l-2.578-2.58h5.155z"/></svg><svg viewBox="0 0 12 22" id="down-arrow" xmlns="http://www.w3.org/2000/svg"><path fill-rule="evenodd" d="M.307 15.722l4.983 5.003a.993.993 0 001.409 0l4.983-5.003a1 1 0 00-.704-1.708H6.991V1.011A.998.998 0 005.995.01a.999.999 0 00-.997 1.001v13.003H1.012a1.001 1.001 0 00-.705 1.708zm8.265.293l-2.577 2.588-2.578-2.588h5.155z"/></svg><svg viewBox="0 0 117 22" id="logo" xmlns="http://www.w3.org/2000/svg"><path fill-rule="evenodd" d="M117 22h-6l-5-6.875L101 22h-6l8-11-8-11h6l5 6.875L111 0h6l-8 11 8 11zM76 0h15v4H81v5h9v4h-9v5h10v4H76V0zM50 0l14 11V0h5v22L50 6V0zM33 22c-6.075 0-11-4.925-11-11 0-.666.069-1.315.183-1.949l5.726 5.09C28.966 15.851 30.842 17 33 17a6 6 0 100-12c-2.244 0-4.176 1.246-5.206 3.07l-3.822-3.345A10.98 10.98 0 0133 0c6.075 0 11 4.925 11 11s-4.925 11-11 11zm-16-4v4H0L10 6H1V1h17L8 18h9zm38 4h-5V12l5 3v7z"/></svg></svg>